<?xml version="1.0" encoding="UTF-8"?>
<!DOCTYPE svg PUBLIC "-//W3C//DTD SVG 1.1//EN" "http://www.w3.org/Graphics/SVG/1.1/DTD/svg11.dtd">
<svg xmlns="http://www.w3.org/2000/svg" version="1.1" width="1386px" height="214px" style="shape-rendering:geometricPrecision; text-rendering:geometricPrecision; image-rendering:optimizeQuality; fill-rule:evenodd; clip-rule:evenodd" xmlns:xlink="http://www.w3.org/1999/xlink">
<g><path style="opacity:0.951" fill="#fefffe" d="M 893.5,32.5 C 916,29.1813 934.833,35.848 950,52.5C 951.656,64.1763 946.823,68.343 935.5,65C 923.278,53.3607 908.944,49.694 892.5,54C 874.99,60.8426 865.657,73.6759 864.5,92.5C 867.708,121.874 884.041,135.374 913.5,133C 918.136,132.121 922.469,130.455 926.5,128C 929.887,124.947 933.553,122.28 937.5,120C 948.39,119.224 952.224,124.058 949,134.5C 933.608,149.74 915.108,155.573 893.5,152C 863.415,143.903 847.082,124.237 844.5,93C 846.752,61.2633 863.085,41.0967 893.5,32.5 Z"/></g>
<g><path style="opacity:0.943" fill="#fefffe" d="M 14.5,33.5 C 18.6034,32.7691 22.1034,33.7691 25,36.5C 25.4999,53.1633 25.6666,69.83 25.5,86.5C 44.1667,86.5 62.8333,86.5 81.5,86.5C 81.3334,70.1633 81.5001,53.8299 82,37.5C 82.4652,36.0692 83.2986,34.9025 84.5,34C 87.5,33.3333 90.5,33.3333 93.5,34C 94.7014,34.9025 95.5348,36.0692 96,37.5C 96.6667,74.1667 96.6667,110.833 96,147.5C 95.5,149.333 94.3333,150.5 92.5,151C 88.4087,152.227 84.9087,151.394 82,148.5C 81.5001,132.17 81.3334,115.837 81.5,99.5C 62.8333,99.5 44.1667,99.5 25.5,99.5C 25.6666,115.837 25.4999,132.17 25,148.5C 22.0913,151.394 18.5913,152.227 14.5,151C 12.741,149.992 11.5743,148.492 11,146.5C 10.3333,110.5 10.3333,74.5 11,38.5C 11.6972,36.4156 12.8639,34.7489 14.5,33.5 Z"/></g>
<g><path style="opacity:0.93" fill="#fefffe" d="M 462.5,33.5 C 465.187,33.3359 467.854,33.5026 470.5,34C 472.259,35.008 473.426,36.508 474,38.5C 474.667,74.5 474.667,110.5 474,146.5C 471.612,151.226 467.778,152.726 462.5,151C 461.667,150.167 460.833,149.333 460,148.5C 459.333,111.167 459.333,73.8333 460,36.5C 461.045,35.6266 461.878,34.6266 462.5,33.5 Z"/></g>
<g><path style="opacity:0.967" fill="#fefffe" d="M 1215.5,33.5 C 1218.52,33.3354 1221.52,33.502 1224.5,34C 1225.93,34.4652 1227.1,35.2986 1228,36.5C 1229.42,46.0862 1229.92,55.7529 1229.5,65.5C 1234.3,65.1211 1238.96,65.6211 1243.5,67C 1247.5,72 1247.5,77 1243.5,82C 1238.96,83.3789 1234.3,83.8789 1229.5,83.5C 1229.67,104.503 1229.5,125.503 1229,146.5C 1227.2,150.235 1224.2,151.902 1220,151.5C 1215.8,151.902 1212.8,150.235 1211,146.5C 1210.5,125.503 1210.33,104.503 1210.5,83.5C 1198.97,86.1998 1193.8,81.8665 1195,70.5C 1195.47,69.0692 1196.3,67.9025 1197.5,67C 1201.7,65.6326 1206.03,65.1326 1210.5,65.5C 1210.33,56.4938 1210.5,47.4938 1211,38.5C 1212.02,36.313 1213.52,34.6464 1215.5,33.5 Z"/></g>
<g><path style="opacity:0.966" fill="#fefffe" d="M 1362.5,33.5 C 1365.52,33.3354 1368.52,33.502 1371.5,34C 1373.67,34.8333 1375.17,36.3333 1376,38.5C 1376.67,74.5 1376.67,110.5 1376,146.5C 1374.2,150.235 1371.2,151.902 1367,151.5C 1362.8,151.902 1359.8,150.235 1358,146.5C 1357.33,110.5 1357.33,74.5 1358,38.5C 1359.02,36.313 1360.52,34.6464 1362.5,33.5 Z"/></g>
<g><path style="opacity:0.929" fill="#fefffe" d="M 1170.5,34.5 C 1181.99,32.4956 1187.15,37.1623 1186,48.5C 1185.22,50.286 1184.05,51.786 1182.5,53C 1170.07,56.9003 1164.57,52.4003 1166,39.5C 1167.71,37.9625 1169.21,36.2959 1170.5,34.5 Z"/></g>
<g><path style="opacity:0.914" fill="#fefffe" d="M 590.5,36.5 C 600.966,35.1271 604.799,39.4605 602,49.5C 597.656,53.1282 592.99,53.4615 588,50.5C 585.425,45.034 586.258,40.3673 590.5,36.5 Z"/></g>
<g><path style="opacity:0.948" fill="#fefffe" d="M 146.5,64.5 C 174.026,61.5047 191.859,73.1713 200,99.5C 200.667,103.833 200.667,108.167 200,112.5C 199.5,113.667 198.667,114.5 197.5,115C 174.502,115.5 151.502,115.667 128.5,115.5C 133.544,133.035 145.211,140.535 163.5,138C 168.604,136.613 172.937,133.947 176.5,130C 185.039,126.549 189.206,129.382 189,138.5C 183.417,145.397 176.25,149.897 167.5,152C 141.781,156.064 123.947,146.231 114,122.5C 107.992,93.5012 118.825,74.1679 146.5,64.5 Z M 149.5,78.5 C 168.861,76.4962 180.861,84.8295 185.5,103.5C 166.5,103.5 147.5,103.5 128.5,103.5C 130.791,91.2091 137.791,82.8758 149.5,78.5 Z"/></g>
<g><path style="opacity:0.941" fill="#fefffe" d="M 216.5,64.5 C 225.157,62.9878 229.324,66.6544 229,75.5C 239.118,66.351 250.951,62.851 264.5,65C 268.5,69.3333 268.5,73.6667 264.5,78C 246.431,78.0982 234.598,86.5982 229,103.5C 228.667,117.833 228.333,132.167 228,146.5C 225.612,151.226 221.778,152.726 216.5,151C 215.667,150.167 214.833,149.333 214,148.5C 213.333,121.5 213.333,94.5 214,67.5C 215.045,66.6266 215.878,65.6266 216.5,64.5 Z"/></g>
<g><path style="opacity:0.942" fill="#fefffe" d="M 302.5,64.5 C 330.453,61.6399 348.286,73.6399 356,100.5C 356.667,116.167 356.667,131.833 356,147.5C 355.535,148.931 354.701,150.097 353.5,151C 345.327,153.164 341.16,149.997 341,141.5C 330.043,151.45 317.21,154.95 302.5,152C 286.276,148.109 275.442,138.276 270,122.5C 263.992,93.5012 274.825,74.1679 302.5,64.5 Z M 304.5,79.5 C 330.124,77.9575 342.29,89.9575 341,115.5C 335.051,132.23 323.218,139.397 305.5,137C 291.411,132.739 283.744,123.239 282.5,108.5C 283.848,94.1679 291.181,84.5012 304.5,79.5 Z"/></g>
<g><path style="opacity:0.948" fill="#fefffe" d="M 520.5,64.5 C 548.026,61.5047 565.859,73.1713 574,99.5C 574.667,103.833 574.667,108.167 574,112.5C 573.5,113.667 572.667,114.5 571.5,115C 548.502,115.5 525.502,115.667 502.5,115.5C 507.544,133.035 519.211,140.535 537.5,138C 542.604,136.613 546.937,133.947 550.5,130C 559.039,126.549 563.206,129.382 563,138.5C 557.417,145.397 550.25,149.897 541.5,152C 515.781,156.064 497.947,146.231 488,122.5C 481.992,93.5012 492.825,74.1679 520.5,64.5 Z M 523.5,78.5 C 542.861,76.4962 554.861,84.8295 559.5,103.5C 540.5,103.5 521.5,103.5 502.5,103.5C 504.791,91.2091 511.791,82.8758 523.5,78.5 Z"/></g>
<g><path style="opacity:0.987" fill="#fefffe" d="M 590.5,64.5 C 594.603,63.7691 598.103,64.7691 601,67.5C 601.667,94.5 601.667,121.5 601,148.5C 596.667,152.5 592.333,152.5 588,148.5C 587.333,121.5 587.333,94.5 588,67.5C 589.045,66.6266 589.878,65.6266 590.5,64.5 Z"/></g>
<g><path style="opacity:0.954" fill="#fefffe" d="M 718.5,64.5 C 727.86,63.0285 731.694,67.0285 730,76.5C 743.314,63.433 758.481,60.933 775.5,69C 785.865,77.2286 791.365,88.0619 792,101.5C 792.667,116.5 792.667,131.5 792,146.5C 791.011,150.255 788.511,151.922 784.5,151.5C 781.675,151.881 779.509,150.881 778,148.5C 777.667,132.833 777.333,117.167 777,101.5C 773.578,81.7054 762.411,75.2054 743.5,82C 735.008,87.4785 730.508,95.3118 730,105.5C 729.667,119.833 729.333,134.167 729,148.5C 724.667,152.5 720.333,152.5 716,148.5C 715.333,121.5 715.333,94.5 716,67.5C 717.045,66.6266 717.878,65.6266 718.5,64.5 Z"/></g>
<g><path style="opacity:0.963" fill="#fefffe" d="M 1171.5,64.5 C 1177.69,62.9926 1182.19,64.9926 1185,70.5C 1185.67,95.8333 1185.67,121.167 1185,146.5C 1183.2,150.235 1180.2,151.902 1176,151.5C 1171.8,151.902 1168.8,150.235 1167,146.5C 1166.33,120.833 1166.33,95.1667 1167,69.5C 1168.37,67.6383 1169.87,65.9717 1171.5,64.5 Z"/></g>
<g><path style="opacity:0.936" fill="#fefffe" d="M 403.5,65.5 C 416.802,63.6043 429.136,66.1043 440.5,73C 449.039,79.8289 448.372,85.3289 438.5,89.5C 432.663,86.081 426.663,82.9144 420.5,80C 402.611,77.23 390.778,84.3966 385,101.5C 382.498,122.492 391.664,134.826 412.5,138.5C 416.22,137.88 419.886,137.047 423.5,136C 428.392,132.934 433.392,130.101 438.5,127.5C 445.119,129.234 447.286,133.234 445,139.5C 436.639,148.928 426.139,153.261 413.5,152.5C 386.481,150.815 371.481,136.482 368.5,109.5C 370.2,86.709 381.867,72.0424 403.5,65.5 Z"/></g>
<g><path style="opacity:0.936" fill="#fefffe" d="M 648.5,65.5 C 674.313,62.1444 691.813,72.4777 701,96.5C 705.83,122.346 696.33,140.512 672.5,151C 644.072,157.042 624.906,146.542 615,119.5C 611.218,92.0396 622.385,74.0396 648.5,65.5 Z M 651.5,79.5 C 676.633,78.4658 688.466,90.4658 687,115.5C 681.607,132.956 669.773,140.456 651.5,138C 637.654,133.338 629.987,123.671 628.5,109C 629.708,93.9759 637.375,84.1426 651.5,79.5 Z"/></g>
<g><path style="opacity:0.956" fill="#fefffe" d="M 993.5,65.5 C 1021.59,62.4512 1039.43,74.4512 1047,101.5C 1047.67,116.5 1047.67,131.5 1047,146.5C 1043.75,151.223 1039.25,152.723 1033.5,151C 1030.62,149.749 1028.79,147.583 1028,144.5C 1017.69,152.073 1006.19,154.573 993.5,152C 971.906,145.839 960.239,131.506 958.5,109C 960.349,86.4116 972.016,71.9116 993.5,65.5 Z M 996.5,84.5 C 1015.17,82.3497 1025.84,90.5164 1028.5,109C 1025.54,127.157 1014.87,135.157 996.5,133C 978.878,124.803 974.378,111.969 983,94.5C 986.802,90.0366 991.302,86.7033 996.5,84.5 Z"/></g>
<g><path style="opacity:0.963" fill="#fefffe" d="M 1069.5,65.5 C 1076.74,63.6947 1081.91,66.0281 1085,72.5C 1092.26,67.1424 1100.42,64.8091 1109.5,65.5C 1136.93,67.096 1151.6,81.596 1153.5,109C 1151.6,136.404 1136.93,150.904 1109.5,152.5C 1100.42,153.191 1092.26,150.858 1085,145.5C 1084.67,156.167 1084.33,166.833 1084,177.5C 1082.06,181.386 1078.9,183.053 1074.5,182.5C 1070.31,183.146 1067.48,181.48 1066,177.5C 1065.33,141.833 1065.33,106.167 1066,70.5C 1067,68.6769 1068.16,67.0103 1069.5,65.5 Z M 1102.5,84.5 C 1116.84,82.0844 1127.01,87.4177 1133,100.5C 1136.65,116.025 1131.15,126.858 1116.5,133C 1097.83,135.175 1087.16,127.008 1084.5,108.5C 1085.67,96.8009 1091.67,88.8009 1102.5,84.5 Z"/></g>
<g><path style="opacity:0.956" fill="#fefffe" d="M 1285.5,65.5 C 1313.59,62.4512 1331.43,74.4512 1339,101.5C 1339.67,116.5 1339.67,131.5 1339,146.5C 1335.75,151.223 1331.25,152.723 1325.5,151C 1322.62,149.749 1320.79,147.583 1320,144.5C 1309.69,152.073 1298.19,154.573 1285.5,152C 1263.91,145.839 1252.24,131.506 1250.5,109C 1252.35,86.4116 1264.02,71.9116 1285.5,65.5 Z M 1288.5,84.5 C 1307.17,82.3497 1317.84,90.5164 1320.5,109C 1317.54,127.157 1306.87,135.157 1288.5,133C 1270.88,124.803 1266.38,111.969 1275,94.5C 1278.8,90.0366 1283.3,86.7033 1288.5,84.5 Z"/></g>
</svg>
